<?xml version="1.0" encoding="utf-8"?>
<!-- Generator: Adobe Illustrator 22.1.0, SVG Export Plug-In . SVG Version: 6.00 Build 0)  -->
<svg version="1.1" baseProfile="basic" id="Layer_1"
	 xmlns="http://www.w3.org/2000/svg" xmlns:xlink="http://www.w3.org/1999/xlink" x="0px" y="0px" viewBox="0 0 153.6 33.5"
	 xml:space="preserve">
<g>
	<path fill="rgb(250, 250, 250)" d="M36.1,13.6C36.1,13.6,36.1,13.6,36.1,13.6C36.1,13.6,36.2,13.6,36.1,13.6C36.2,13.6,36.1,13.6,36.1,13.6z"/>
	<path fill="rgb(250, 250, 250)" d="M122.7,1.5c-0.1,0-0.1,0-0.2,0c0,0,0,0,0,0C122.6,1.6,122.6,1.6,122.7,1.5C122.7,1.5,122.7,1.5,122.7,1.5z"/>
	<path fill="rgb(250, 250, 250)" d="M122.7,1.7c0.1-0.1,0.2-0.1,0.2-0.1c0,0-0.1,0-0.2,0C122.7,1.6,122.7,1.6,122.7,1.7C122.7,1.6,122.7,1.6,122.7,1.7z"/>
	<path fill="rgb(250, 250, 250)" d="M120.6,1.7c-0.1,0-0.2,0-0.4,0c0,0.1,0,0.3,0,0.4c0.1,0,0.2,0,0.4,0C120.6,1.9,120.6,1.8,120.6,1.7z"/>
	<path fill="rgb(250, 250, 250)" d="M118.5,2c0.2-0.1,0.5-0.1,0.7-0.2c-0.3,0-0.6,0-1,0c0.1,0,0.1,0,0.2,0C118.5,1.8,118.5,1.9,118.5,2z"/>
	<path fill="rgb(250, 250, 250)" d="M119.7,1.9c0.1-0.1,0.2-0.2,0.2-0.2c0,0,0-0.1,0-0.1C119.6,1.6,119.5,1.7,119.7,1.9C119.6,1.9,119.6,1.9,119.7,1.9z"/>
	<path fill="rgb(250, 250, 250)" d="M110.7,1.7C110.7,1.7,110.6,1.7,110.7,1.7C110.6,1.7,110.6,1.7,110.7,1.7C110.6,1.7,110.7,1.7,110.7,1.7z"/>
	<path fill="rgb(250, 250, 250)" d="M117.8,1.6c0,0.1,0.1,0.2,0.3,0.2c0-0.1,0-0.2,0-0.3c-0.1,0-0.2,0-0.3,0c0,0,0-0.1,0-0.1c-0.1,0-0.2,0-0.4,0
		c0,0.1,0,0.3,0,0.4c0.1,0,0.2,0,0.4,0C117.8,1.7,117.8,1.7,117.8,1.6z"/>
	<path fill="rgb(250, 250, 250)" d="M113.8,1.3c-0.1,0-0.2,0-0.4,0c0,0.1,0,0.3,0,0.4c0.1,0,0.2,0,0.4,0C113.8,1.6,113.8,1.5,113.8,1.3z"/>
	<path fill="rgb(250, 250, 250)" d="M151.7,9.1C151.6,9.1,151.6,9.1,151.7,9.1c-0.4,0.2-0.7,0.4-0.8,0.8c-0.8,0.4-1.2,0.7-1.2,0.9c-2,1.8-3.4,2.7-4.1,2.7
		c-0.2,0-0.3,0-0.5,0c-0.2,0-0.3-0.2-0.3-0.6c0-0.1,0-0.1,0-0.2c0.1-0.8,0.6-1.8,1.5-3c0,0,0-0.1-0.1-0.1c0.1-0.4-0.3-0.6-1-0.6
		c-0.6-0.5-1.2-0.8-1.8-0.8c-1,0.1-1.5,0.2-1.5,0.4c-0.7,0.4-1.3,0.7-2,1.1c0-0.1,0.1-0.3,0.1-0.4c-0.2,0-0.3,0-0.5,0
		c0,0.1-0.1,0.2-0.1,0.3c-0.4,0.4-0.7,0.7-0.9,0.9c0,0,0,0,0,0c-1,0.7-1.7,1.3-2.1,2c-1.1,0.9-1.9,1.4-2.4,1.4c-0.1,0-0.1,0-0.2,0
		c-0.1,0-0.1-0.2-0.2-0.7c0.4-1.6,0.6-2.4,0.7-2.6c0,0,0,0,0-0.1c-0.2-1-0.7-1.5-1.3-1.4c-0.5,0.1-0.9,0.3-1.4,0.4
		c-0.7,0.5-1.4,0.9-2,1.4c-0.7,0.7-1.1,1.1-1.2,1.1c-0.4,0.4-0.8,0.8-1.1,1c0.2-0.6,0.6-1.4,1.1-2.4c0,0,0,0,0,0c0,0,0,0,0,0
		c0.4-0.8,0.9-1.7,1.5-2.8c0.2-0.8,0.7-1.6,1.2-2.4c1.1-2.3,1.8-3.6,2-4c-0.1-0.1-0.4-0.3-0.6-0.3c-0.4,0-0.8,0.6-1.5,1.8
		c-2.1,3.7-3.3,5.8-3.5,6.4c-0.2,0.4-0.5,0.9-0.8,1.5c-0.1,0-0.1,0.1-0.2,0.1c-1.9,2.1-4.4,3.5-7.5,4c-1.2,0-1.8-0.2-1.7-0.6
		c0-0.2,0-0.3,0-0.5c0-0.2,0.4-0.9,1-1.9c1.8-1.6,3-2.5,3.5-2.6c0,0.1-0.1,0.4-0.4,1c0.1,0.4,0.4,0.7,0.9,0.6c0.5,0,1-0.6,1.5-1.9
		c0-0.1,0-0.1,0-0.2c0.1-0.5-0.3-0.8-1.2-0.9c-0.1,0-0.2,0-0.3,0c-0.5,0-1.7,0.7-3.6,2.1c-0.1,0-0.2,0.1-0.4,0.1c0,0.1,0,0.1,0,0.2
		c0,0,0,0,0,0c0,0-0.1,0-0.1,0c-0.4,0.3-0.7,0.6-0.9,0.9c-0.4,0.4-0.8,0.8-1.1,1.2c-1.2,1.1-2.1,1.8-2.7,2c-0.8,0.3-1.5,0.4-2.2,0.5
		c-1.1,0-1.6-0.2-1.6-0.8c0-0.1,0-0.2,0-0.3c0.3-0.1,0.6-0.3,0.9-0.4c0.9-0.2,2-1,3.4-2.4c0.4-0.5,0.6-1,0.7-1.7
		c-0.4-0.4-0.7-0.6-1.1-0.6c-0.6,0-1.5,0.4-2.6,1c-1.6,1.2-2.5,2.2-2.8,3.1c0,0-0.1,0.1-0.1,0.1c-0.1,0-0.2,0-0.3,0
		c0,0.1,0,0.2,0,0.2c-2,1.9-4.4,3.3-7.3,4.1c-0.1,0-0.2,0-0.2,0c-0.8,0-1.2-0.1-1.2-0.3c0,0,0,0,0-0.1c1.5-0.7,2.6-1.2,3.3-1.7
		c1.7-1.2,2.5-2.4,2.4-3.5c-0.1-0.2-0.2-0.5-0.3-0.7c-0.8-0.6-1.4-1-1.9-0.9c-0.6,0-1.2,0.2-1.8,0.5c-0.1,0-0.1,0-0.2-0.1
		c-0.7,0.4-1,0.6-1.2,0.6c-1.4,1.2-2.2,1.8-2.3,1.8c-0.1,0-0.1,0-0.2,0c0-0.1,0.1-0.8,0.2-2c0-0.4-0.3-0.6-0.9-0.8
		c-0.5,0-0.7,0.5-0.8,1.4c-0.4,0.5-0.8,1-1.2,1.4c-1.8,1.7-3.2,2.6-4.1,2.7c0,0-0.1,0-0.1,0c-0.3,0-0.4-0.1-0.4-0.4
		c0-0.1,0-0.2,0-0.4c0-0.7,0.3-1.9,1-3.7c0-0.5-0.3-0.8-1-0.9c-0.4,0-1.4,0.6-2.8,1.7c0,0,0,0-0.1,0c-0.4-0.9-1-1.3-1.8-1.2
		c-0.1,0-0.3,0-0.4,0c-1.2,0.4-1.7,0.7-1.7,0.8c-0.8,0.4-1.7,1.2-2.8,2.5c0,0-0.1,0-0.1,0c0,0,0-0.1,0-0.1c0-0.1,0.1-0.7,0.2-1.9
		c-0.2-0.2-0.3-0.4-0.5-0.6c-0.2,0-0.5,0-0.7,0c-0.1,0.1-0.2,0.3-0.3,0.5c-1.9,1.4-3,2.2-3.4,2.3c0.1-0.7,0.2-1.2,0.1-1.4
		c-0.4-0.7-0.6-1.1-0.7-1.1c-0.1-0.5-1-0.6-2.7-0.4c-0.1,0-0.2,0-0.3,0.1c-0.3,0.1-0.5,0.2-0.5,0.2c-0.6,0.2-1.1,0.4-1.5,0.7
		c0-0.2,0.1-0.3,0.1-0.5c0-0.1-0.1-0.1-0.1-0.2c-1,1.3-1.8,2.4-2.5,3.1c-0.5,0.5-1.2,0.9-1.9,1.4c-2.4,1.6-4.1,2.5-4.9,2.6
		c-0.8,0.1-1.2-0.3-1.3-1c0-0.3,0-0.5,0-0.8c0-0.6,0.1-1.3,0.3-1.9c-0.1-0.1-0.1-0.2-0.1-0.3c0-0.2,0.5-1.7,1.6-4.6
		c0.9-1.6,1.4-2.5,1.4-2.6C62.8,7.2,63,6.8,63,6.8C68.5,5.9,73,5.3,76.6,5c0.3,0,0.5,0,0.8,0.1c0.1,0,0.4-0.1,0.8-0.2
		c0.2,0,0.3,0,0.5,0.1c0.9-0.1,1.9-0.2,2.8-0.3c0.1,0.1,0.2,0.1,0.4,0.1c0.5-0.1,0.9-0.2,1.2-0.2c0.4,0,0.8,0,1.1-0.1
		c0.3,0,0.5,0,0.8,0c0,0,0.1-0.1,0.3-0.2c0.1,0,0.3,0,0.4,0.1c0.8-0.1,1.6-0.2,2.4-0.3c0.1,0,0.3,0.1,0.4,0.1
		C88.8,4.1,89.1,4,89.3,4c0.1,0,0.2,0,0.3,0c1.2-0.1,2.6-0.2,4.3-0.3c0.1,0.1,0.2,0.1,0.2,0.1c0.4-0.1,0.8-0.2,1.2-0.3
		c0.4,0.1,0.6,0.1,0.7,0.1c0.1,0,0.2,0,0.3,0c0.4-0.1,0.6-0.2,0.7-0.2c0.2,0,0.3,0,0.5,0c0.2,0,0.4,0,0.6,0.1c0-0.1,0.2-0.1,0.5-0.1
		c0.1,0,0.3,0,0.3,0.1c0.3-0.1,0.5-0.1,0.7-0.1c0.6,0,1.2,0,1.8-0.1c0,0,0.1,0,0.1,0.1c0.7-0.3,1.1-0.5,1.2-0.5c0,0,0.1,0,0.1,0
		c0.2,0,0.3,0,0.5,0.1c0.1,0,0.2-0.1,0.4-0.3c0,0,0.1,0,0.1,0c0.1,0.1,0.5,0.2,1.2,0.3c0.6-0.1,0.9-0.2,1.1-0.2c0.1,0,0.3,0,0.4,0.1
		c0.1-0.1,0.2-0.1,0.3-0.2c0.2,0,0.4,0,0.6,0.1c0.2,0,0.4-0.1,0.7-0.1c0,0,0.1,0,0.1,0.1c0,0,0-0.1,0.1-0.1c0.1,0,0.1,0,0.2-0.1
		c0.1,0,0.2,0,0.1,0c0.2,0,0.4,0,0.4,0.1c0.7-0.1,1.1-0.2,1.2-0.3c0.1,0,0.1,0,0.2,0c0,0.1,0,0.1,0,0.2c0.2,0,0.4,0,0.5,0
		c0-0.1,0-0.1,0-0.2c0.2,0,0.3,0.1,0.5,0.1c0.1,0,0.2-0.1,0.4-0.2c0.2,0,0.3,0,0.5,0.1c0,0.1,0.2,0.1,0.6-0.1c0,0,0.1,0,0.1,0
		c0.2,0,0.5,0,0.9,0.1c0.1-0.1,0.2-0.1,0.3-0.2c0.3,0,0.6,0.1,0.8,0.1c0.1,0,0.3,0,0.4,0c0,0,0.2-0.1,0.6-0.2c0,0.1,0,0.1,0,0.2
		c0.2,0,0.5,0,0.7,0c0,0,0,0,0,0c0,0,0,0,0.1,0c0,0,0,0-0.1-0.1c0-0.2,0-0.4,0-0.5c-0.2,0-0.5,0-0.7,0c0,0.1,0,0.2,0,0.3
		c-0.1,0-0.1,0-0.2,0c-0.2,0.1-0.3,0.1-0.4,0.1c-0.2-0.1-0.3-0.1-0.3-0.1c-0.2,0-0.3,0-0.2-0.1c-0.2,0-0.3,0-0.3-0.1
		c-0.3,0.1-0.5,0.2-0.5,0.4c-0.1,0-0.2,0-0.3,0c-0.4-0.3-0.7-0.4-0.7-0.3c0,0,0,0,0-0.1c0,0,0,0,0,0.1c0,0.1,0.1,0.1,0.1,0.2
		c-0.1,0-0.2,0.1-0.3,0.1c-0.2-0.2-0.4-0.3-0.5-0.3c-0.2,0.2-0.4,0.3-0.6,0.3c-0.1,0-0.2,0-0.2,0c0.1-0.1,0.1-0.3,0.2-0.4
		c-0.3,0-0.6,0-1,0c0.3,0,0.4,0.2,0.4,0.4c-0.3,0-0.4-0.1-0.5-0.4c-0.1,0-0.2,0-0.3,0c0.1,0,0.2,0,0.3,0c0-0.1,0-0.1,0-0.2
		c-0.1,0-0.2,0-0.2,0c-0.1,0.1-0.1,0.1-0.2,0.2c0.1,0,0.2,0,0.2,0c0,0.2-0.1,0.3-0.3,0.3c-0.4-0.3-0.8-0.5-1.1-0.5
		c0,0,0.1,0.1,0.1,0.1c0,0.1-0.1,0.2-0.1,0.4c-0.1,0-0.3,0-0.4,0c0,0,0,0,0,0c0-0.1,0-0.2,0-0.3c-0.1,0-0.1,0-0.2,0
		c0-0.1-0.1-0.1-0.1-0.2c-0.6,0-1.3,0-1.9,0.1c-0.1,0-0.1,0.2-0.2,0.5c-0.1,0-0.2,0-0.3,0c0-0.1,0-0.2,0-0.2c0,0,0,0,0,0
		c-0.1-0.1-0.2-0.1-0.3-0.1c-0.1-0.1-0.3-0.1-0.4-0.2c-0.3,0.1-0.6,0.2-0.7,0.2c0-0.1-0.1-0.1-0.2-0.2c-0.2,0-0.3,0.1-0.5,0.1
		c-0.5,0-1.1,0-1.6,0.1c-0.3,0-0.7,0.1-1.3,0.1c0-0.1,0-0.1-0.2-0.1c-0.1,0.1-0.2,0.1-0.3,0.1C100.3,2,100.1,2,100,1.9
		c-0.4,0.1-0.8,0.2-1.3,0.2c-0.1,0-0.1-0.1-0.2-0.1c-0.3,0.1-0.5,0.1-0.7,0.1c-0.2,0-0.6,0-1.1-0.1c-0.3,0-0.6,0.1-0.9,0.1
		c0,0.1,0,0.1,0,0.1c0-0.1,0-0.1-0.1-0.1c-0.4,0-0.7,0-1.1,0c-0.3,0-0.7,0.1-1,0.1c0-0.1,0-0.1-0.1-0.2c-0.3,0.1-0.7,0.1-1,0.2
		c-0.2,0-0.3,0-0.5-0.1c-0.9,0.1-1.8,0.2-2.7,0.3c-0.2,0-0.4-0.1-0.6-0.1c0,0,0,0,0,0.1c-0.1,0-0.6,0-1.4,0c-0.1,0-0.3,0.1-0.5,0.2
		c-0.1,0-0.2,0-0.2,0c-1.7,0.1-2.1,0.1-1.3-0.1c-0.2,0-0.4,0-0.7,0c-0.2,0.1-0.4,0.1-0.7,0.1c-0.2,0-0.4,0-0.6,0
		c-0.1,0-0.2,0-0.3-0.1c-0.1,0.1-0.2,0.1-0.3,0.1c-0.3,0-0.7,0-1,0c-0.2,0-0.4,0.1-0.7,0.2C80.9,3,80.6,3,80.3,3
		c-0.2,0-0.6,0.1-1.3,0.2c0,0-0.1,0-0.1-0.1c-0.1,0.1-0.2,0.1-0.3,0.1c-0.1,0-0.2,0-0.3,0c-0.3,0-0.5,0-0.8-0.1
		c-1,0.1-1.5,0.2-1.6,0.3c-0.4,0-0.8,0-1.2,0c-0.1,0-0.3,0.1-0.4,0.1c-0.4,0.1-0.9,0.2-1.3,0.2c-4.4,0.5-6.7,0.9-7,1
		c-0.4,0-0.9,0.1-1.3,0.1c-0.1,0-0.2-0.1-0.2-0.2C65.4,2.9,66,1.9,66,1.5c0-0.1-0.1-0.3-0.4-0.6C65.5,1,65.3,1,65.2,1
		C65,1,64.9,1,64.8,1c0,0-0.1,0.1-0.1,0.1c-0.6,1.2-1,1.9-1.2,2.2c0,0.3-0.4,1.1-1.3,2.2c-1.7,0.3-4.9,1-9.4,2.2
		c-0.1,0.1-0.1,0.3-0.2,0.4c0,0.2-0.1,0.3-0.1,0.5c0.1,0.3,0.4,0.5,0.9,0.7c2.3-0.6,4.7-1.2,7.1-1.7c0.1,0.1,0.2,0.1,0.3,0.1
		c0,0.2-0.2,0.7-0.6,1.4c-0.3,0.4-0.6,1-0.8,1.8c-0.4,0.4-0.6,1-0.7,1.7c-0.1,0.4-0.3,0.7-0.4,1c-0.1,0.1-0.2,0.3-0.4,0.4
		c-2.5,2.5-4.1,3.8-4.9,3.9c-0.3-0.2-0.4-0.3-0.4-0.4c0-0.2,0-0.5,0-0.7c0.3-1,0.6-1.6,0.8-1.9c0.7-0.8,1-1.2,1-1.3
		c-0.1-0.2-0.2-0.4-0.3-0.4c-0.1,0-0.2,0-0.2,0c-0.3,0-0.6,0.1-1,0.2c-1.1,1.3-2.1,2.4-2.9,3.3c-1.6,1.4-2.7,2.1-3.2,2.2
		c-0.1,0-0.2-0.1-0.3-0.4c0.1-1,0.3-1.7,0.5-2.2c1-1.5,1.5-2.4,1.5-2.6c-0.3-0.2-0.6-0.3-0.8-0.2c-0.3,0.1-0.5,0.2-0.6,0.2
		c-0.1,0.1-0.2,0.3-0.3,0.4c-0.3,0.1-0.4,0.2-0.5,0.3c-0.4,0.1-1.3,0.4-2.6,1.1c0,0-0.1,0-0.1-0.1c-0.3,0-0.5,0.1-0.7,0.3
		c-0.2,0-0.4,0-0.5,0c-1.1,0.4-1.7,0.6-1.7,0.8c-0.1,0-0.1,0-0.2,0c-0.3,0.1-0.6,0.3-0.9,0.4c0,0-0.2,0-0.6,0
		c-0.4,0.3-0.9,0.5-1.6,0.7c-0.3,0.1-0.8,0.3-1.4,0.5c0.3-1,1.2-3.4,2.7-7.2c0.3-1.1,0.6-1.9,0.9-2.3c0-0.2-0.1-0.3-0.1-0.5
		c0.4-0.7,0.8-2,1.4-3.7c0-0.1,0-0.1,0-0.2c0-0.4-0.3-0.7-0.8-0.7c-0.5,0-1,1-1.5,2.8c0,0,0,0,0,0.1c-0.1,0.1-0.3,0.5-0.7,1.3
		C38,8,38,8.1,38,8.2c-0.2,0.2-0.2,0.6-0.3,1.2c0,0,0,0-0.1,0c-0.1,0.1-0.2,0.1-0.3,0.2c0,0.2,0,0.3-0.1,0.3c0,0-0.1,0.3-0.1,0.6
		c-0.6,1.1-0.8,1.8-0.8,2c0.1,0,0.1,0,0.1,0c-0.1,0.1-0.2,0.2-0.2,0.2c0,0-0.1,0-0.1-0.1c0,0.3,0,0.5-0.1,0.7c0,0.1,0,0.2,0.1,0.3
		c0,0.1-0.1,0.1-0.1,0c-0.1,0-0.2,0-0.3,0c0,0.2,0,0.3-0.1,0.3c-0.2,0.7-0.3,1.1-0.5,1.3c0,0,0,0,0,0c0,0,0,0,0.1,0
		c-0.2,0.8-0.4,1.2-0.6,1.2c0,0.2,0,0.3,0.1,0.4c0,0-0.1,0-0.1,0c0,0.3,0,0.4,0.1,0.4c0,0-0.1,0.1-0.3,0.4c0,0.1,0,0.2,0,0.3
		c-0.2,0.1-0.3,0.4-0.5,1c-0.6,0.2-0.9,0.3-0.9,0.4c0,0,0,0-0.1,0c-0.8,0.2-1.2,0.3-1.2,0.5c-0.1,0-0.1,0-0.2,0
		c-1.2,0.4-1.7,0.7-1.7,0.9c0,0,0,0,0,0c0,0,0,0-0.1,0c-0.1,0-0.2,0-0.4-0.1c-0.7,0.2-1.3,0.5-2,0.7c-0.2,0-0.5,0-0.7,0.1
		c-0.3-0.2-0.5-0.3-0.6-0.3c0,0,0,0,0.1-0.1c0-0.2-0.2-0.3-0.6-0.5c-0.1,0-0.2,0-0.2,0c0-0.1,0-0.1,0-0.2c-0.2,0-0.3-0.1-0.3-0.3
		c-0.8-0.2-1.1-0.3-1.1-0.3c-0.7-0.2-1.1-0.4-1.2-0.6c0-0.1,0.1-0.5,0.5-1.3c0.8-1.8,1.4-3.3,1.9-4.7c0.3-0.6,1.1-3.3,2.3-8
		c-0.4-0.5-0.7-0.8-1.1-0.7c-0.2,0.2-0.4,0.3-0.6,0.3c-0.1,0.6-0.3,1.3-0.6,2.1c0,0,0.1,0,0.1,0c-0.4,1.5-0.9,3-1.3,4.4
		c0.1,0,0.2,0,0.2,0c-0.1,0.2-0.2,0.3-0.3,0.5c0,0.1,0,0.3,0,0.4c0,0-0.1,0-0.1,0c-0.1,0.5-0.2,0.7-0.4,0.7c0,0.5-0.2,0.7-0.4,0.7
		c0,0.2,0,0.4,0.1,0.4c-0.1,0.2-0.2,0.4-0.3,0.6c-0.1,0.5-0.2,0.8-0.4,0.9c0,0.1,0,0.2,0,0.3c-0.1,0.3-0.1,0.5-0.1,0.6
		c0,0.1,0,0.3,0,0.4c-0.4,0.3-0.6,0.5-0.6,0.7c0.1,0.1,0.1,0.2,0.2,0.3c0,0-0.2,0-0.5,0.1c-0.1,0.6-0.3,0.9-0.4,0.9
		c-0.3,0-0.5-0.1-0.7-0.2c-0.1,0-0.1,0-0.2,0c-0.1,0-0.1,0.1-0.2,0.1c-0.1-0.1-0.2-0.1-0.3-0.2c-0.1,0-0.3,0.1-0.4,0.1
		c0,0-0.1-0.1-0.1-0.2c-0.2,0-0.5,0.1-0.6,0.2c-0.3-0.2-0.6-0.3-0.9-0.2c-0.1,0-0.2,0-0.3,0c-0.1,0.1-0.2,0.1-0.3,0.2
		c-0.7-0.1-1.2-0.2-1.4-0.2c0,0.1-0.3,0.3-0.9,0.4c-0.1,0-0.2,0-0.2,0c-0.1,0-0.3,0-0.4,0c-0.5,0.1-0.7,0.2-0.7,0.3
		c-0.1,0-0.2,0-0.3,0c-0.1,0-0.1,0.1-0.2,0.1c0,0,0.1-0.1,0.1-0.2c-0.1,0-0.2,0-0.3,0c-0.2,0.3-0.5,0.4-0.6,0.4c-0.1,0-0.2,0-0.4,0
		c-0.1,0-0.3,0.1-0.5,0.2c0,0-0.1,0-0.1,0c-0.4,0-0.6,0.1-0.6,0.2c-0.1,0-0.3,0-0.4,0c-0.1,0.1-0.3,0.2-0.6,0.3
		c-0.1,0-0.1-0.1-0.2-0.1c-0.2,0-0.3,0.1-0.3,0.1c-0.6,0.1-0.8,0.3-0.8,0.5c0,0-0.1,0-0.1,0c-0.1,0-0.3,0.1-0.4,0.2
		c-0.1,0-0.2,0-0.2,0c-0.3,0-0.6,0.2-0.9,0.5c-0.5,0.1-0.8,0.3-1.1,0.6c-0.1,0-0.2,0-0.5,0c-0.2,0-0.3,0.1-0.3,0.1
		c-0.8,0.3-1.2,0.6-1.2,0.9c0,0,0,0,0,0c-0.3,0-0.6,0.2-0.8,0.4c-0.1,0.2-0.1,0.3-0.1,0.4c0,0,0-0.1,0-0.1c-0.1,0-0.2,0-0.3,0
		C1.4,24.2,1,24.8,1,25.2c0,0,0,0,0,0.1c0,0.3,0.2,0.7,0.5,1.1c1.7,1.1,3.7,1.5,6,1.3c0.1-0.1,0.1-0.1,0.2-0.1c0.2,0,0.4,0,0.4,0
		c0.2,0,0.3-0.1,0.5-0.1c0,0,0.1,0,0.2,0c2.2-0.4,3.4-0.6,3.5-0.7c0.1,0,0.2,0,0.3,0c0,0,0.1,0,0.1,0c1.9-0.5,3.8-0.9,5.7-1.4
		c0,0.1,0.1,0.1,0.1,0.2c-0.1,0.2-0.2,0.3-0.3,0.3c0,0.2,0,0.4,0,0.6c0,0,0,0-0.2,0.1c-0.1,0.3-0.2,0.7-0.4,1c0,0.1,0,0.1,0,0.2
		c-0.1,0.3-0.1,0.5-0.2,0.7c0,0,0,0.1,0.1,0.1c-0.1,0-0.1,0-0.2,0c0,0.3,0,0.4,0.1,0.4c0,0.2-0.1,0.3-0.4,0.5
		c0.1,0.1,0.2,0.2,0.2,0.3c-0.2,0-0.3,0.2-0.3,0.4c0,0.1,0,0.2,0,0.2c0,0,0.1,0,0.1,0c-0.1,0.1-0.1,0.2-0.1,0.3c0,0,0,0,0,0.1
		c-0.1,0-0.2,0-0.3,0c0,0.1,0,0.2,0,0.3c0,0-0.1,0.4-0.3,1.1c0.1,0,0.1,0,0.1,0.1c0,0.2,0.1,0.2,0.4,0.2c0.2,0,0.8-1,1.7-3
		c0.7-2,1.3-3.5,1.8-4.5c0-0.2,1-0.5,3.1-1c1.2-0.4,2.3-0.7,3.5-1.1c0,0,0.1,0,0.1,0c0.3,0.2,0.5,0.4,0.5,0.6
		c0.3,0.2,0.7,0.7,1.2,1.5c0.4,0.6,0.7,1.5,1.1,2.6c0,0,0,0.1-0.1,0.2c0.2,0.6,0.3,1,0.3,1.1c0,0.2,0,0.4,0,0.6c0,0.1,0,0.2,0.1,0.3
		c-0.1,0.6-0.1,1.3-0.2,1.9c0,0.1,0,0.2,0,0.3c0,0.3,0.2,0.6,0.5,0.7c0,0,0.1,0,0.1,0c0.7-0.2,1-0.4,1-0.6c0.3-2,0.6-3.3,0.8-3.9
		c0.6-2.1,0.9-3.3,0.9-3.4c0.1,0,0.7-1.6,1.6-4.9c0-0.2,1.2-0.7,3.7-1.6c0.1,0,0.1,0.1,0.2,0.1c0.1-0.1,0.1-0.1,0.2-0.2
		c2.1-0.7,3.3-1.2,3.9-1.5c1.1-0.4,1.9-0.7,2.6-1c-0.5,1-0.8,2-0.8,2.9c0,0,0,0.1,0,0.1c0.2,1.1,0.8,1.6,1.7,1.6
		c0.3,0,0.6-0.1,1-0.2c0.5,0,1.6-0.9,3.3-2.6c0.5,1.2,1.2,1.8,2.2,1.7c0,0,0.1,0,0.1,0c1-0.1,2-0.6,3-1.5c0.6-0.7,1.2-1.3,1.6-1.9
		c0,0,0,0.1,0,0.1c-0.1,0.3-0.1,0.6-0.1,0.8c0,0.2,0,0.4,0,0.5c-0.1,0.1-0.1,0.2-0.2,0.3c0,0.1,0,0.1,0,0.2c0.2,0.2,0.2,0.4,0.2,0.6
		c0,0.1,0,0.1,0,0.2c0,0.1-0.1,0.1-0.1,0.2c0.3,0.3,0.4,0.6,0.4,0.8c0.5,0.6,1.3,0.9,2.4,0.9c1-0.1,2.1-0.6,3.5-1.6
		c0.7-0.4,1.2-0.8,1.6-1.2c0.5-0.2,1.3-1,2.4-2.2c0,0.4,0.1,0.8,0.2,1.2c0.2,0.3,0.3,0.6,0.5,0.9c0.8,0.9,1.8,1.1,3,0.8
		c0.2-0.1,0.4-0.2,0.5-0.2c0.5-0.4,1.3-1,2.3-2c0.5-0.1,1.1-0.4,1.7-0.9c1.1-0.9,1.9-1.6,2.5-2.2c0,0.1,0,0.2,0.1,0.4
		c-0.4,1.7-1.2,3.5-2.5,5.2c0,0.4,0.3,0.6,0.8,0.7c0,0,0.1,0,0.1,0c0.4,0,0.8-0.6,1.3-1.9c2.7-3.3,4.8-5.2,6.5-5.7
		c0.4,0,0.6,0.1,0.6,0.2c0,0.3,0,0.6,0,0.9c-0.3,0.7-0.5,1.1-0.5,1.2c-0.8,0.7-1.2,1.3-1.1,1.7c0,0,0,0.1,0,0.1
		c0.1,0.3,0.3,0.4,0.6,0.4c0,0,0.1,0,0.1,0c0.1,0,0.4-0.1,0.6-0.3c1.3-2,2.5-3.4,3.8-4.1c0.1,0,0.1,0,0.2,0.1
		c-0.4,1.1-0.8,2-0.9,2.7c0,0.1,0,0.2,0,0.4c0,0.2,0,0.5,0.1,0.8c0.4,0.9,1,1.3,2,1.2c0.9,0,2-0.8,3.4-2.2c0.6-0.6,1.1-1.2,1.5-1.7
		c-0.1,0.9-0.2,1.5-0.4,1.9c-0.4,0.6-0.6,1.1-0.6,1.3c-0.3,0.2-0.5,0.4-0.8,0.6c-1,1.4-1.5,2.1-1.6,2.1c0,0.1,0,0.2,0,0.4
		c0,0.1-0.1,0.2-0.5,0.3c0.1,0.6-0.1,0.9-0.5,0.9c-1,1.8-1.8,3.7-2.5,5.8c-0.1,0.5-0.2,0.9-0.4,1.1c0,0.1,0,0.1,0,0.2
		c0,0.4,0.4,0.7,1,0.7c0.1,0,0.2,0,0.3,0c0.4,0,1.2-0.7,2.4-2.1c1-1.2,1.9-2.8,2.7-5c0.5-1.2,1-2.7,1.7-4.6c0.1,0,0.5,0.4,1.3,1.2
		c1.1,0.7,2.6,0.7,4.7,0.1c1.8-0.6,3.8-1.8,5.8-3.5c0.5,1.1,1.5,1.7,3,1.6c0.3-0.1,0.6-0.2,0.9-0.2c1.3-0.3,2.5-0.8,3.6-1.6
		c0.3,1.3,1.2,1.9,2.6,1.8c0.1,0,0.3,0,0.4,0c2.5-0.1,4.8-1.1,6.8-2.8c-0.5,0.9-0.7,1.5-0.7,1.6c0,0.1,0,0.2,0,0.3
		c-0.1,0-0.3,0.4-0.6,1.2c0,0,0,0,0,0c0,0.1,0,0.1-0.1,0.2c0,0.4,0.4,0.5,1.1,0.6c0.8-0.6,1.6-1.6,2.4-2.8c2.4-2.4,4.1-3.8,5.1-4.1
		c0.1,0,0.1,0.1,0.1,0.2c-0.4,1.3-0.6,2.2-0.6,2.5c0,0.3,0,0.6,0,0.9c0.3,0.9,1,1.3,1.9,1.3c0.5,0,1.1-0.3,1.9-0.8
		c0.3,0.7,0.8,1.1,1.7,1.1c0.1,0,0.2,0,0.2,0c1.1,0,2.7-0.8,4.8-2.3c0.1,0,0.2,0,0.2,0c0,0,0,0.1,0,0.1c0.4,1.1,1.2,1.6,2.3,1.6
		c1.2,0,2.9-1.1,4.9-3.2c0.7-0.7,1.3-1.5,1.7-2.3C151.7,9.4,151.7,9.3,151.7,9.1z M37.8,9.4C37.8,9.4,37.8,9.4,37.8,9.4
		C37.8,9.4,37.8,9.4,37.8,9.4C37.8,9.4,37.8,9.4,37.8,9.4z M24.4,10.9c0.1,0,0.2,0,0.2,0c0,0.1,0,0.1,0,0.2c-0.1,0-0.2,0-0.2,0
		C24.4,11,24.4,10.9,24.4,10.9z M20.8,19.8c-0.4,0.7-0.5,1.1-0.5,1.2c0,0.1,0,0.1,0.1,0.2c-0.3,0.1-0.5,0.4-0.5,1c0,0,0,0.1,0,0.1
		c0,0,0,0,0,0c-0.2,0-0.3,0.3-0.5,0.9c0,0,0.1,0.1,0.1,0.1c0,0.1,0,0.2-0.1,0.3c0,0,0,0,0.1,0.1c0,0-0.4,0.1-1.3,0.4
		c0,0-0.1,0-0.1-0.1c-0.7,0.2-2.3,0.7-4.8,1.3c0,0-0.1,0-0.1-0.1c-2.2,0.5-3.4,0.7-3.6,0.8c0,0-0.1,0-0.2-0.1C9.1,25.9,9,26,8.9,26
		c-0.5,0.1-1,0.1-1.5,0.2c-2.3,0.2-3.9-0.2-4.5-1.1c0-0.3,0.5-0.9,1.7-1.7c1.8-1.1,4.3-2.2,7.4-3.2c0,0,0.1,0,0.1,0.1
		c1.4-0.3,2.3-0.6,2.6-0.7c0.3,0,0.6,0,0.8,0c0.7-0.1,1.4-0.1,2.1-0.2c0,0,0,0,0.1,0c0.1,0.1,0.4,0.1,1.1,0.1c0.2,0,0.3,0,0.5,0
		c0.2,0.1,0.4,0.2,0.6,0.3c0,0,0-0.1,0-0.1C20.5,19.6,20.8,19.6,20.8,19.8C20.8,19.7,20.8,19.7,20.8,19.8z M23.6,22.5
		c-0.1,0-0.1-0.1-0.2-0.1c-0.2,0.2-1,0.4-2.3,0.7c0.7-2,1.1-3,1.2-3.1c1.2,0.2,2.3,0.8,3.6,1.7c-0.3,0.1-0.9,0.3-2,0.7
		C23.8,22.5,23.7,22.5,23.6,22.5z M28.2,23.5c0-0.1,0-0.1,0-0.2c0.1,0,0.2,0,0.2,0.2C28.4,23.5,28.3,23.5,28.2,23.5z M32.2,26.4
		c0,0-0.1,0-0.1-0.1c0,0,0-0.1,0.1-0.1c0,0,0.1,0,0.1,0.1C32.2,26.3,32.2,26.3,32.2,26.4z M33.1,23.1c-0.1,0-0.1,0-0.2,0
		c0-0.1,0-0.1,0-0.2c0.1,0,0.1,0,0.2,0C33.1,23,33.1,23.1,33.1,23.1z M33.2,21.6c-0.2,0.3-0.3,0.4-0.3,0.5c0,0.1,0,0.1,0,0.1
		c-0.1,0-0.1,0-0.2,0c0.1,0.1,0.1,0.2,0.2,0.3c0,0,0,0,0,0c-0.3,0.3-0.4,0.6-0.4,0.8c-0.6,1.7-0.9,2.6-0.9,2.8
		c0,0.1,0.1,0.2,0.1,0.2c-0.1,0-0.3,0.3-0.5,0.9c0.1,0-0.1-0.6-0.5-1.8c-0.3-0.1-0.4-0.2-0.4-0.5c-0.3-0.8-0.7-1.2-0.9-1.2
		c0-0.1-0.3-0.5-1-1.2c0,0,0-0.1,0-0.1c0,0,0.1,0,0.1-0.1c0,0,0.1,0,0.2,0.1c0.1-0.1,0.2-0.1,0.4-0.2c0.7-0.2,1.1-0.4,1.3-0.5
		c0.1,0,0.1,0,0.2,0c0.2,0,0.5-0.1,0.9-0.3c0.3-0.2,1-0.6,2.1-0.9c0,0,0,0,0.1,0c-0.1,0.5-0.2,0.7-0.3,0.7
		C33.1,21.4,33.2,21.5,33.2,21.6z M71.3,17.4c-0.4,0.1-0.7,0.1-0.9,0.1c-0.3,0-0.6-0.4-0.9-1.2c0-0.1,0-0.1-0.1-0.2
		c-0.2-0.7,0-1.5,0.6-2.3c0,0,0,0,0,0c0,0.1,0.1,0.4,0.1,0.6c0,0.1,0.1,0.2,0.1,0.2c0.3,0.8,1,1.4,2.3,1.9
		C72.5,16.6,72.1,16.9,71.3,17.4z M73.7,15.2c-0.1,0-0.1,0-0.2,0.1c-0.7,0.2-1.3-0.1-1.7-1c-0.3-0.8,0.1-1.4,1.1-1.7
		c0.1,0,0.2,0,0.2,0c0.5-0.1,0.9,0.2,1.3,1C74.3,14.1,74.1,14.6,73.7,15.2z M92.9,19.2c0,0.1,0,0.1,0,0.2c-0.1,0-0.2,0-0.2-0.1
		c0,0,0,0,0-0.1C92.8,19.2,92.9,19.2,92.9,19.2z M90.4,23.4C90.4,23.4,90.4,23.4,90.4,23.4c-0.1,0-0.1-0.1-0.1-0.1
		c0-0.1,0-0.1,0.1-0.2c0,0,0.1,0,0.1,0c0,0,0,0.1,0,0.1C90.6,23.3,90.5,23.3,90.4,23.4z M93,21.5c-0.6,1.9-1.4,3.4-2.5,4.5
		c0,0-0.1,0-0.1,0c0.1-0.7,0.2-1.2,0.1-1.3c0-0.1,0-0.2,0-0.4c0.3-0.3,0.5-0.6,0.5-1c0.6-0.8,1-1.4,1.2-2c0.5-0.7,1-1.3,1.5-2
		c0.1,0,0.1,0,0.2,0C93.8,19.7,93.5,20.4,93,21.5z M98.2,16.2c-0.3,0-0.6,0-1-0.1c-0.4,0.2-0.7,0.3-0.8,0.3c0,0-0.1,0-0.1,0
		c0-0.1,0.2-0.4,0.5-1c2.4-2.4,4.2-3.8,5.4-4c0.4,0,0.7,0.2,0.7,0.6c0,0.1,0,0.2,0,0.3c-0.1,0.7-0.6,1.5-1.4,2.4
		c-1.7,1-2.8,1.5-3.2,1.5C98.3,16.1,98.2,16.2,98.2,16.2z M113.4,9.9C113.4,9.9,113.4,9.9,113.4,9.9c0,0.1-0.1,0.1-0.1,0.1
		c-0.6,1-1.7,1.8-3.2,2.3C111.4,10.9,112.5,10.1,113.4,9.9z M143.7,10.1c-0.1,0.5-0.7,1.2-1.8,2.1c-1.8,1.4-3.2,2.1-4.2,2.2
		c-0.1,0-0.1,0-0.2,0c-0.1,0-0.1,0-0.1-0.1c0-0.2,0-0.3,0.1-0.5c0.1-0.2,0.2-0.4,0.3-0.6c0,0,0.1-0.1,0.1-0.1
		c0.6-0.6,1.1-1.2,1.7-1.8c0,0,0-0.1,0-0.1c1.3-1,2.4-1.6,3.5-2C143.6,9.2,143.8,9.4,143.7,10.1C143.8,10,143.7,10,143.7,10.1z"/>
</g>
</svg>
